<?xml version="1.0" encoding="utf-8"?>
<svg viewBox="251.734 159.594 85.375 76.93" xmlns="http://www.w3.org/2000/svg">
  <defs>
    <clipPath id="clip1">
      <path d="M 254 167 L 287 167 L 287 188.097656 L 254 188.097656 Z M 254 167 " id="path76"/>
    </clipPath>
    <clipPath id="clip2">
      <path d="M 302 163 L 335 163 L 335 188.21875 L 302 188.21875 Z M 302 163 " id="path79"/>
    </clipPath>
    <clipPath id="clip4">
      <path d="M 251.640625 190.773438 L 337.140625 190.773438 L 337.140625 236.523438 L 251.640625 236.523438 Z M 251.640625 190.773438 " id="path85"/>
    </clipPath>
    <clipPath id="clip5">
      <path d="M 276.386719 159.59375 L 311 159.59375 L 311 188.09375 L 276.386719 188.09375 Z M 276.386719 159.59375 " id="path88"/>
    </clipPath>
    <clipPath id="clip6">
      <path d="M 307 188 L 311 188 L 311 188.09375 L 307 188.09375 Z M 307 188 " id="path91"/>
    </clipPath>
    <clipPath id="clip7">
      <path d="M 307 186 L 311 186 L 311 188.09375 L 307 188.09375 Z M 307 186 " id="path94"/>
    </clipPath>
    <clipPath id="clip8">
      <path d="M 287 184 L 292 184 L 292 188.09375 L 287 188.09375 Z M 287 184 " id="path97"/>
    </clipPath>
    <clipPath id="clip9">
      <path d="M 305 187 L 307 187 L 307 188.09375 L 305 188.09375 Z M 305 187 " id="path100"/>
    </clipPath>
    <clipPath id="clip10">
      <path d="M 297 188 L 299 188 L 299 188.09375 L 297 188.09375 Z M 297 188 " id="path103"/>
    </clipPath>
  </defs>
  <g clip-path="url(#clip1)" clip-rule="nonzero" id="g116">
    <path style="fill:#ffa300;fill-opacity:1;fill-rule:nonzero;stroke:none" d="m 254.96094,177.91016 c 3.23828,-14.33204 25.82031,-14.25782 30.83593,-0.82422 4.35157,11.61718 -8.32812,28.02343 -13.42968,33.96093 -1.07032,1.25 -2.9961,1.25 -4.07813,0 -4.55469,-5.28906 -16.39062,-19.59375 -13.32812,-33.13671 z m 0,0" id="path114"/>
  </g>
  <path style="fill:#ffffff;fill-opacity:1;fill-rule:nonzero;stroke:none" d="m 258.74609,187.25 c -0.30468,0.0547 -1.85156,-3.28125 -1.27734,-7.16406 0.17578,-1.17578 0.57422,-3.64063 2.65625,-5.71485 1.65625,-1.64843 3.54297,-2.22265 4.44141,-2.42578 -1.98047,1.25781 -4.20313,3.16016 -5.375,6.01953 -1.87891,4.59766 -0.0859,9.21875 -0.44532,9.28516 z m 0,0" id="path118"/>
  <g clip-path="url(#clip2)" clip-rule="nonzero" id="g122" transform="matrix(1, 0, 0, 1, 0.024621, -0.126782)">
    <path style="fill:#ffa300;fill-opacity:1;fill-rule:nonzero;stroke:none" d="m 334.16797,197.12109 c -3.23828,14.33203 -25.82031,14.25782 -30.83594,0.82422 -4.35156,-11.61719 8.32813,-28.02344 13.42969,-33.96094 1.07031,-1.25 2.99609,-1.25 4.07812,0 4.55469,5.28907 16.39063,19.59375 13.32813,33.13672 z m 0,0" id="path120"/>
  </g>
  <g clip-path="url(#clip4)" clip-rule="nonzero" id="g130">
    <path style="fill-opacity: 1; fill-rule: nonzero; stroke: none; fill: rgb(234, 29, 44);" d="m 336.51172,190.77344 h -84.04297 c -0.40234,0 -0.73438,0.26953 -0.73438,0.67187 -0.0664,17.60156 10.53907,33.1875 26.54688,39.83594 v 4.50391 c 0,0.40234 0.46875,0.73828 0.86719,0.73828 h 30.68359 c 0.39844,0 0.46484,-0.33594 0.46484,-0.73828 v -4.50391 c 16.00782,-6.58203 26.8125,-22.16797 26.8125,-39.83594 0,-0.40234 -0.26562,-0.67187 -0.59765,-0.67187 z m 0,0" id="path128"/>
  </g>
  <g clip-path="url(#clip5)" clip-rule="nonzero" id="g134">
    <path style="fill:#ffca42;fill-opacity:1;fill-rule:nonzero;stroke:none" d="m 309.03516,160.19531 c -1.05079,0.082 -2.70704,0.17578 -4.75782,0.14844 -4.48828,-0.0664 -4.41797,-0.65234 -7.74609,-0.51563 0,0 -4.47656,0.19141 -6.29297,-0.0117 -0.043,0 -0.35156,-0.043 -0.76953,-0.082 -0.28516,-0.0273 -1.09375,-0.10937 -1.83203,-0.16406 -0.92969,-0.0664 -2.33203,-0.12109 -4.01563,-0.082 -0.33984,0.0156 -0.60937,0.0156 -0.80859,0.0273 -1.75391,0.30079 -3.50391,0.58594 -5.26953,0.88282 0.12109,8.26953 0.22656,16.53515 0.35156,24.8164 0.44141,4.39844 0.40234,7.98438 0.29297,10.46875 -0.30859,6.94922 -0.51172,11.33594 -1.07813,14.21485 0,0 -0.69921,3.51562 -0.0781,5.46875 0.0117,0.043 0.0781,0.24609 0.12109,0.53125 0.0664,0.55859 -0.0547,1.04687 -0.17578,1.38672 0,0 -0.32422,0.64843 0.94141,0.66406 1.13281,-0.0547 27.61328,-1.61719 30.2539,-2.25391 0.84766,-0.20312 1.42969,-0.70703 1.42969,-0.70703 0.83594,-0.73437 1.13281,-1.80469 1.23828,-2.6875 0,0 -5.6875,-32.94922 -0.92968,-45.94141 0,-0.0156 1.875,-6.25781 -0.875,-6.16406 z m 0,0" id="path132"/>
  </g>
  <g clip-path="url(#clip6)" clip-rule="nonzero" id="g138">
    <path style="fill:#ffca42;fill-opacity:1;fill-rule:nonzero;stroke:none" d="m 307.94141,189.68359 0.17578,-1.53515 2.10156,0.82812 z m 0,0" id="path136"/>
  </g>
  <g clip-path="url(#clip7)" clip-rule="nonzero" id="g142">
    <path style="fill:#ffca42;fill-opacity:1;fill-rule:nonzero;stroke:none" d="m 307.92969,188.25781 0.0391,-1.54687 2.32031,0.70312 z m 0,0" id="path140"/>
  </g>
  <path style="fill:#ffca42;fill-opacity:1;fill-rule:nonzero;stroke:none" d="m 307.95703,186.73828 0.0273,-1.53516 2.31641,0.69141 z m 0,0" id="path144"/>
  <path style="fill:#ffca42;fill-opacity:1;fill-rule:nonzero;stroke:none" d="m 307.96875,185.3125 0.0273,-1.53516 2.32032,0.69141 z m 0,0" id="path146"/>
  <path style="fill:#ffca42;fill-opacity:1;fill-rule:nonzero;stroke:none" d="m 307.98437,183.80469 0.0274,-1.53516 2.3164,0.69141 z m 0,0" id="path148"/>
  <g clip-path="url(#clip8)" clip-rule="nonzero" id="g152">
    <path style="fill:#ffa300;fill-opacity:1;fill-rule:nonzero;stroke:none" d="m 287.99219,187.05859 c 0.11718,-0.34375 0.27343,-0.65625 0.46875,-0.94531 0.19531,-0.28906 0.41406,-0.52734 0.65625,-0.71484 0.24218,-0.1875 0.48828,-0.3086 0.74218,-0.3711 0.25391,-0.0586 0.49219,-0.0469 0.71485,0.0312 0.22656,0.0781 0.41797,0.21875 0.58203,0.42188 0.16406,0.20312 0.28125,0.45312 0.35547,0.7539 0.0781,0.29688 0.10156,0.6211 0.082,0.96875 -0.0234,0.34766 -0.0937,0.69141 -0.21094,1.03516 -0.12109,0.34375 -0.27734,0.66016 -0.47265,0.94922 -0.19141,0.28516 -0.41016,0.52344 -0.65235,0.71094 -0.24219,0.1875 -0.49219,0.3125 -0.74219,0.37109 -0.2539,0.0586 -0.49218,0.0508 -0.71875,-0.0273 -0.22265,-0.0781 -0.41796,-0.21875 -0.57812,-0.42188 -0.16406,-0.20703 -0.28125,-0.45703 -0.35938,-0.7539 -0.0742,-0.30079 -0.10156,-0.6211 -0.0781,-0.96875 0.0234,-0.34766 0.0937,-0.69532 0.21094,-1.03907 z m 0,0" id="path150"/>
  </g>
  <path style="fill:#ffa300;fill-opacity:1;fill-rule:nonzero;stroke:none" d="m 289.72656,175.90234 c 0.26172,-0.13281 0.53906,-0.20703 0.82813,-0.22656 0.28906,-0.0195 0.57422,0.0156 0.85156,0.10938 0.27344,0.0937 0.52344,0.23437 0.74219,0.42968 0.21875,0.19141 0.39453,0.41797 0.52343,0.6836 0.12891,0.26172 0.20704,0.53906 0.22657,0.83203 0.0195,0.29297 -0.0156,0.57812 -0.10938,0.85547 -0.0937,0.27734 -0.23437,0.52734 -0.42578,0.75 -0.19141,0.22265 -0.41797,0.39843 -0.67969,0.52734 -0.26172,0.13281 -0.53515,0.20703 -0.82812,0.22656 -0.28906,0.0195 -0.57422,-0.0156 -0.84766,-0.10937 -0.27734,-0.0937 -0.52344,-0.23828 -0.74609,-0.42969 -0.21875,-0.19141 -0.39453,-0.42187 -0.52344,-0.68359 -0.12891,-0.26172 -0.20312,-0.53907 -0.22266,-0.83203 -0.0195,-0.29297 0.0156,-0.57813 0.10938,-0.85547 0.0898,-0.28125 0.23437,-0.53125 0.42578,-0.75 0.19141,-0.22266 0.41797,-0.39844 0.67578,-0.52735 z m 0,0" id="path154"/>
  <path style="fill:#ffa300;fill-opacity:1;fill-rule:nonzero;stroke:none" d="m 289.25391,168.58594 c 0.66015,0.23047 0.98437,1.07031 0.69921,1.87109 -0.26953,0.80469 -1.03906,1.26563 -1.69921,1.03516 -0.66016,-0.23047 -0.98047,-1.07422 -0.69922,-1.875 0.26953,-0.80078 1.02343,-1.26172 1.69922,-1.03125 z m 0,0" id="path156"/>
  <path style="fill:#ffa300;fill-opacity:1;fill-rule:nonzero;stroke:none" d="m 300.11719,166.06641 c 0.20703,-0.60157 0.47265,-1.16016 0.80078,-1.67188 0.32812,-0.51172 0.6914,-0.93359 1.08984,-1.27344 0.39844,-0.33984 0.80078,-0.57031 1.21094,-0.68359 0.41016,-0.11719 0.79297,-0.11328 1.14844,0.0117 0.35547,0.12109 0.66015,0.35547 0.91015,0.70312 0.25,0.34375 0.42578,0.77735 0.53125,1.28907 0.10547,0.51562 0.13282,1.07812 0.0781,1.68359 -0.0547,0.60547 -0.1875,1.20703 -0.39453,1.8125 -0.20703,0.60547 -0.47657,1.16016 -0.80078,1.67187 -0.32813,0.51172 -0.69141,0.9375 -1.08985,1.27735 -0.39844,0.33984 -0.80469,0.5664 -1.21094,0.68359 -0.41015,0.11719 -0.79296,0.11328 -1.14843,-0.0117 -0.35547,-0.125 -0.66016,-0.35937 -0.91016,-0.70703 -0.25,-0.34375 -0.42578,-0.77344 -0.53125,-1.28906 -0.10547,-0.51563 -0.13281,-1.07422 -0.0781,-1.67969 0.0547,-0.60547 0.1875,-1.21094 0.39453,-1.8164 z m 0,0" id="path158"/>
  <path style="fill:#ffa300;fill-opacity:1;fill-rule:nonzero;stroke:none" d="m 301.71094,181.71875 c 0.14843,-0.4375 0.33984,-0.84375 0.5664,-1.21484 0.23047,-0.375 0.48438,-0.6836 0.75782,-0.9375 0.27343,-0.25 0.55078,-0.41797 0.82812,-0.51172 0.27734,-0.0898 0.53516,-0.0937 0.77344,-0.0117 0.23828,0.082 0.4375,0.24609 0.60156,0.49219 0.16016,0.24218 0.27344,0.55078 0.33594,0.91796 0.0625,0.36719 0.0703,0.76954 0.0234,1.20313 -0.0469,0.4375 -0.14454,0.875 -0.29688,1.3125 -0.14844,0.43359 -0.33984,0.83984 -0.57031,1.21094 -0.22656,0.375 -0.48047,0.68359 -0.75391,0.9375 -0.27344,0.25 -0.55078,0.42187 -0.82812,0.51172 -0.27735,0.0898 -0.53516,0.0937 -0.77344,0.0117 -0.23828,-0.082 -0.4375,-0.24609 -0.60156,-0.49218 -0.16407,-0.24219 -0.27344,-0.54688 -0.33594,-0.91797 -0.0625,-0.36719 -0.0703,-0.76953 -0.0234,-1.20313 0.0469,-0.4375 0.14453,-0.875 0.29688,-1.30859 z m 0,0" id="path160"/>
  <path style="fill:#ffca42;fill-opacity:1;fill-rule:nonzero;stroke:none" d="m 307.95703,182.57031 0.0391,-1.57812 2.12891,0.73437 z m 0,0" id="path162"/>
  <path style="fill:#ffca42;fill-opacity:1;fill-rule:nonzero;stroke:none" d="m 307.98437,181.01953 0.0391,-1.57422 2.1289,0.73438 z m 0,0" id="path164"/>
  <path style="fill:#ffca42;fill-opacity:1;fill-rule:nonzero;stroke:none" d="m 308.01172,179.47266 0.0391,-1.57422 2.12891,0.73437 z m 0,0" id="path166"/>
  <path style="fill:#ffca42;fill-opacity:1;fill-rule:nonzero;stroke:none" d="m 308.02344,178.00781 0.043,-1.57422 2.1289,0.7461 z m 0,0" id="path168"/>
  <path style="fill:#ffca42;fill-opacity:1;fill-rule:nonzero;stroke:none" d="m 308.05078,176.46094 0.0391,-1.5625 2.12891,0.73437 z m 0,0" id="path170"/>
  <path style="fill:#ffca42;fill-opacity:1;fill-rule:nonzero;stroke:none" d="m 308.07812,174.91016 0.0391,-1.57422 2.1289,0.74609 z m 0,0" id="path172"/>
  <path style="fill:#ffca42;fill-opacity:1;fill-rule:nonzero;stroke:none" d="m 308.10547,173.44531 0.14844,-1.5625 2.08984,0.8711 z m 0,0" id="path174"/>
  <path style="fill:#ffca42;fill-opacity:1;fill-rule:nonzero;stroke:none" d="m 308.23828,171.91016 0.14844,-1.5586 2.08984,0.86719 z m 0,0" id="path176"/>
  <path style="fill:#ffca42;fill-opacity:1;fill-rule:nonzero;stroke:none" d="m 308.375,170.37891 0.14844,-1.5625 2.07422,0.85546 z m 0,0" id="path178"/>
  <path style="fill:#ffca42;fill-opacity:1;fill-rule:nonzero;stroke:none" d="m 308.48047,168.92578 0.14844,-1.5625 2.08984,0.86719 z m 0,0" id="path180"/>
  <path style="fill:#ffca42;fill-opacity:1;fill-rule:nonzero;stroke:none" d="m 308.875,167.51172 0.14453,-1.5586 2.08984,0.86719 z m 0,0" id="path182"/>
  <path style="fill:#ffca42;fill-opacity:1;fill-rule:nonzero;stroke:none" d="m 309.15625,165.95312 0.29687,-1.53515 1.99219,1.05859 z m 0,0" id="path184"/>
  <path style="fill:#ffca42;fill-opacity:1;fill-rule:nonzero;stroke:none" d="m 309.42578,164.375 0.48438,-1.46484 1.875,1.28906 z m 0,0" id="path186"/>
  <path style="fill:#ffa300;fill-opacity:1;fill-rule:nonzero;stroke:none" d="m 297.39062,181.18359 c 0.24219,0.082 0.33985,0.48828 0.19141,0.91016 -0.14844,0.40625 -0.46094,0.67969 -0.70312,0.59766 -0.24219,-0.082 -0.33594,-0.48829 -0.1875,-0.91016 0.14843,-0.42188 0.45703,-0.67969 0.69921,-0.59766 z m 0,0" id="path188"/>
  <path style="fill:#ffa300;fill-opacity:1;fill-rule:nonzero;stroke:none" d="m 293.875,170.16016 c 0.25391,0.0937 0.35156,0.48828 0.21484,0.89453 -0.13281,0.41015 -0.45703,0.66797 -0.71484,0.57031 -0.25391,-0.0937 -0.34766,-0.48828 -0.21484,-0.89453 0.13671,-0.40625 0.45703,-0.65235 0.71484,-0.57031 z m 0,0" id="path190"/>
  <path style="fill:#ffa300;fill-opacity:1;fill-rule:nonzero;stroke:none" d="m 294.49609,162.66797 c 0.69922,0.24219 1.07813,1.01562 0.84766,1.72265 -0.24219,0.70704 -1.01172,1.07032 -1.71094,0.82813 -0.70312,-0.24609 -1.07812,-1.01953 -0.84765,-1.72266 0.22656,-0.70703 0.99609,-1.07422 1.71093,-0.82812 z m 0,0" id="path192"/>
  <path style="fill:#ffa300;fill-opacity:1;fill-rule:nonzero;stroke:none" d="m 285.39844,162.74609 c 0.0937,0.043 0.0937,0.30078 0,0.59766 -0.10938,0.30078 -0.26953,0.51562 -0.36328,0.47656 -0.0937,-0.043 -0.0937,-0.30078 0,-0.59765 0.10937,-0.28516 0.26953,-0.50391 0.36328,-0.47657 z m 0,0" id="path194"/>
  <path style="fill:#ffa300;fill-opacity:1;fill-rule:nonzero;stroke:none" d="m 307.56641,166.44141 c 0.1875,0.0664 0.28125,0.26953 0.23046,0.46093 -0.0547,0.19141 -0.26953,0.28516 -0.46093,0.23047 -0.1875,-0.0664 -0.28125,-0.27344 -0.22657,-0.46094 0.0664,-0.1914 0.26954,-0.30078 0.45704,-0.23046 z m 0,0" id="path196"/>
  <path style="fill:#ffa300;fill-opacity:1;fill-rule:nonzero;stroke:none" d="m 302.99609,174.17969 c 0.17578,0.0664 0.19141,0.5 0.0274,0.97656 -0.16016,0.47656 -0.44532,0.81641 -0.61719,0.76172 -0.17578,-0.0703 -0.19141,-0.50391 -0.0273,-0.98047 0.16015,-0.48828 0.44531,-0.82813 0.61718,-0.75781 z m 0,0" id="path198"/>
  <path style="fill:#ffa300;fill-opacity:1;fill-rule:nonzero;stroke:none" d="m 298.30859,174.5625 c 0.0625,-0.17969 0.15235,-0.32031 0.27344,-0.42188 0.11719,-0.10156 0.23047,-0.13671 0.33594,-0.0977 0.10547,0.0352 0.17187,0.13281 0.20312,0.28515 0.0312,0.15235 0.0156,0.32032 -0.0469,0.5 -0.0625,0.1836 -0.15235,0.32422 -0.26953,0.42579 -0.1211,0.10156 -0.23047,0.13281 -0.33594,0.0977 -0.10547,-0.0352 -0.17578,-0.13281 -0.20703,-0.28515 -0.0274,-0.15625 -0.0117,-0.32032 0.0469,-0.50391 z m 0,0" id="path200"/>
  <g clip-path="url(#clip9)" clip-rule="nonzero" id="g204" style="">
    <path style="fill:#ffa300;fill-opacity:1;fill-rule:nonzero;stroke:none" d="m 306.28516,187.22656 c 0.26953,0.0937 0.40625,0.37891 0.3125,0.65235 -0.0977,0.26953 -0.37891,0.40625 -0.64844,0.30859 -0.26953,-0.0937 -0.40625,-0.37891 -0.3086,-0.64844 0.0937,-0.25781 0.375,-0.39453 0.64454,-0.3125 z m 0,0" id="path202"/>
  </g>
  <g clip-path="url(#clip10)" clip-rule="nonzero" id="g208">
    <path style="fill:#ffa300;fill-opacity:1;fill-rule:nonzero;stroke:none" d="M 283.055 173.906 C 283.527 174.07 283.77 174.586 283.605 175.063 C 283.445 175.535 282.934 175.781 282.461 175.617 C 281.988 175.453 281.746 174.938 281.91 174.465 C 282.082 174.004 282.594 173.746 283.055 173.906 L 283.055 173.906 Z M 283.055 173.906" id="path212"/>
    <path style="fill:#ffa300;fill-opacity:1;fill-rule:nonzero;stroke:none" d="M 283.512 168.734 C 283.688 168.801 283.797 168.992 283.727 169.184 C 283.66 169.359 283.473 169.469 283.281 169.398 C 283.109 169.332 283 169.141 283.066 168.953 C 283.133 168.773 283.336 168.68 283.512 168.734 Z M 283.512 168.734" id="path214"/>
    <path style="fill:#ffa300;fill-opacity:1;fill-rule:nonzero;stroke:none" d="M 306.918 172.93 C 307.215 173.039 307.297 173.582 307.094 174.164 C 306.891 174.75 306.5 175.129 306.203 175.035 C 305.91 174.926 305.828 174.383 306.031 173.797 C 306.23 173.215 306.621 172.82 306.918 172.93 L 306.918 172.93 Z M 306.918 172.93" id="path216"/>
    <path style="fill:#ffa300;fill-opacity:1;fill-rule:nonzero;stroke:none" d="M 281.449 179.121 C 281.773 179.23 281.949 179.594 281.84 179.922 C 281.734 180.246 281.371 180.422 281.047 180.316 C 280.723 180.207 280.547 179.84 280.656 179.516 C 280.762 179.188 281.125 179.012 281.449 179.121 Z M 281.449 179.121" id="path218"/>
    <path style="fill:#ffa300;fill-opacity:1;fill-rule:nonzero;stroke:none" d="M 282.125 163.184 C 282.676 163.371 282.973 163.996 282.785 164.555 C 282.594 165.109 281.977 165.41 281.422 165.219 C 280.871 165.027 280.574 164.402 280.762 163.848 C 280.953 163.289 281.57 162.992 282.125 163.184 Z M 282.125 163.184" id="path220"/>
    <path style="fill:#ffa300;fill-opacity:1;fill-rule:nonzero;stroke:none" d="M 298.402 163.656 C 298.645 163.738 298.766 163.996 298.688 164.227 C 298.606 164.457 298.348 164.582 298.105 164.5 C 297.863 164.418 297.742 164.16 297.824 163.93 C 297.902 163.684 298.16 163.574 298.402 163.656 L 298.402 163.656 Z M 298.402 163.656" id="path224"/>
    <path style="fill:#ffa300;fill-opacity:1;fill-rule:nonzero;stroke:none" d="M 290.113 162.406 C 290.426 162.516 290.547 163.004 290.371 163.496 C 290.211 163.984 289.82 164.297 289.508 164.188 C 289.199 164.078 289.078 163.59 289.254 163.102 C 289.414 162.613 289.805 162.301 290.113 162.406 L 290.113 162.406 Z M 290.113 162.406" id="path226"/>
    <path style="fill:#ffa300;fill-opacity:1;fill-rule:nonzero;stroke:none" d="M 290.898 181.875 C 291.168 181.973 291.301 182.258 291.207 182.527 C 291.113 182.801 290.828 182.934 290.559 182.84 C 290.289 182.746 290.156 182.461 290.25 182.188 C 290.344 181.93 290.641 181.781 290.898 181.875 Z M 290.898 181.875" id="path222"/>
    <path style="fill:#ffa300;fill-opacity:1;fill-rule:nonzero;stroke:none" d="M 284.457 183.723 C 284.645 183.789 284.656 184.238 284.496 184.742 C 284.32 185.242 284.039 185.582 283.848 185.516 C 283.66 185.445 283.648 185 283.809 184.496 C 283.969 184.008 284.266 183.656 284.457 183.723 Z M 284.457 183.723" id="path210"/>
    <path style="fill:#ffa300;fill-opacity:1;fill-rule:nonzero;stroke:none" d="m 298.02344,188.10937 c 0.28515,0.0937 0.43359,0.40625 0.33984,0.67579 -0.0937,0.28515 -0.40625,0.4375 -0.67578,0.33984 -0.28125,-0.0937 -0.42969,-0.40625 -0.33594,-0.67578 0.082,-0.28516 0.39063,-0.4375 0.67188,-0.33985 z m 0,0" id="path206"/>
  </g>
</svg>